<svg xmlns="http://www.w3.org/2000/svg" aria-hidden="true" style="position:absolute;width:0;height:0;overflow:hidden">
    <defs>
        <symbol id="icon-logo" viewBox="0 0 32 32">
            <path d="m16.468 20.13-.098-.192c-.372-.715-1.27-1.179-2.066-1.069-.684.094-1.254.663-1.455 1.466-.216.866-.06 1.701.252 2.513.508 1.324 1.313 2.456 2.304 3.458.686.693 1.232.681 1.907-.024.937-.979 1.697-2.078 2.224-3.33.311-.738.54-1.498.574-2.305.025-.583-.05-1.144-.382-1.644-.421-.635-1.114-.822-1.796-.487-.424.208-.759.52-1.023.906-.152.221-.284.456-.44.709zm13.191 3.721a6.853 6.853 0 0 1-.764 3.097c-.853 1.639-2.087 2.91-3.738 3.761-1.628.84-3.297.936-5.002.267a38.172 38.172 0 0 1-2.057-.863c-1.226-.565-2.447-.56-3.701-.09-.881.33-1.774.631-2.677.892a7.297 7.297 0 0 1-2.874.258c-.844-.096-1.556-.47-2.174-1.035-.787-.721-1.418-1.563-1.815-2.556-.51-1.272-.387-2.5.355-3.66.581-.908 1.365-1.632 2.125-2.381a30.77 30.77 0 0 0 1.602-1.689c.587-.675.937-1.49 1.228-2.327.27-.777.515-1.562.781-2.34.192-.562.545-1.03.894-1.503.839-1.141 2.037-1.64 3.359-1.934 1.567-.348 2.933.101 4.098 1.132.717.634 1.338 1.377 2.005 2.068 1.137 1.176 2.343 2.275 3.694 3.203.673.462 1.378.876 2.045 1.345.954.672 1.759 1.487 2.251 2.569.257.567.359 1.167.368 1.786zM14.273 7.668c.003.874-.152 1.817-.566 2.703-.443.948-1.084 1.698-2.138 1.99-.867.24-1.668.047-2.415-.42-.982-.613-1.646-1.503-2.14-2.527a8.833 8.833 0 0 1-.847-4.703c.087-.971.361-1.878.904-2.704.935-1.423 2.617-1.826 4.079-.96.948.562 1.613 1.382 2.118 2.341.689 1.306 1.016 2.703 1.005 4.279zM24.483 5.065c.001 1.78-.327 3.274-1.137 4.64-.453.764-1.032 1.415-1.832 1.833-1.17.612-2.459.387-3.377-.569-.727-.757-1.122-1.678-1.333-2.687-.365-1.744-.177-3.447.441-5.103.299-.802.735-1.535 1.363-2.127.578-.545 1.237-.973 2.058-1.041 1.044-.087 1.864.356 2.52 1.138.676.806 1.013 1.762 1.18 2.783.072.44.094.888.119 1.133zM0 13.646c.014-.795.166-1.543.639-2.191.618-.847 1.482-1.16 2.504-1.096 1.034.065 1.914.511 2.704 1.141 1.407 1.122 2.338 2.555 2.708 4.327.164.784.176 1.576-.098 2.339-.472 1.313-1.547 1.991-2.95 1.883-.872-.068-1.64-.416-2.345-.913C1.643 18.066.666 16.61.171 14.832c-.106-.382-.117-.79-.171-1.187zM31.951 11.166c-.235 2.469-1.24 4.378-3.188 5.753a3.75 3.75 0 0 1-1.814.67c-1.124.114-2.146-.519-2.568-1.601-.371-.952-.35-1.926-.116-2.895.45-1.865 1.452-3.372 3.028-4.477.697-.489 1.489-.689 2.34-.618.989.083 1.825.825 2.115 1.916.117.441.15.904.205 1.251z"/>
        </symbol>
        <symbol id="icon-logotype" viewBox="0 0 158 52" fill="none" xmlns="http://www.w3.org/2000/svg">
            <path d="M27.117 33.1465C27.0532 33.0216 27.0047 32.9254 26.955 32.8299C26.3418 31.653 24.8642 30.8887 23.5523 31.0695C22.4256 31.2246 21.4869 32.1613 21.1571 33.4837C20.8016 34.9097 21.0583 36.2844 21.5712 37.621C22.4079 39.8006 23.7328 41.6648 25.3647 43.3145C26.4934 44.4553 27.3935 44.436 28.5044 43.2754C30.0466 41.6638 31.2982 39.8544 32.1666 37.7921C32.6785 36.5771 33.0553 35.3256 33.1124 33.9969C33.1538 33.0373 33.0301 32.1131 32.484 31.2894C31.7903 30.2435 30.6492 29.9353 29.5269 30.4875C28.8291 30.8308 28.2776 31.3435 27.8421 31.9793C27.5925 32.3439 27.3744 32.7298 27.117 33.1465ZM48.8381 39.2735C48.8124 41.0707 48.4074 42.7828 47.5799 44.3736C46.1755 47.0727 44.1439 49.1647 41.424 50.5671C38.7429 51.9494 35.9953 52.1076 33.1878 51.0071C32.0482 50.5602 30.912 50.0988 29.8008 49.5867C27.782 48.6558 25.7715 48.6647 23.7069 49.4379C22.2568 49.981 20.7851 50.4762 19.2982 50.9063C17.7582 51.3519 16.173 51.5147 14.5662 51.3313C13.1772 51.1729 12.0038 50.5577 10.9871 49.6266C9.69039 48.4393 8.65277 47.0529 7.99806 45.4179C7.15892 43.3226 7.36053 41.3012 8.58224 39.392C9.53865 37.8972 10.83 36.7046 12.081 35.4708C12.9904 34.574 13.8807 33.6531 14.7183 32.6897C15.6847 31.5778 16.2619 30.2361 16.7402 28.8576C17.1843 27.5787 17.5876 26.2857 18.0258 25.0047C18.3424 24.0792 18.9234 23.3094 19.4975 22.5291C20.8796 20.6509 22.851 19.829 25.0278 19.3453C27.608 18.7717 29.8567 19.5113 31.7755 21.2085C32.9562 22.2526 33.9782 23.4757 35.0772 24.613C36.949 26.5501 38.9346 28.3592 41.1592 29.8873C42.2665 30.648 43.4287 31.3298 44.5269 32.1027C46.0981 33.2087 47.4238 34.5507 48.2327 36.3321C48.6565 37.2653 48.8238 38.2543 48.8381 39.2735Z" fill="#332C22"/>
            <path d="M23.5021 12.6257C23.5064 14.0643 23.2515 15.6178 22.5697 17.0773C21.8403 18.6383 20.7847 19.8731 19.049 20.3535C17.6207 20.7491 16.3021 20.4305 15.0729 19.6626C13.4558 18.6528 12.3622 17.1872 11.5489 15.5017C10.3678 13.0538 9.9126 10.4642 10.1547 7.75802C10.2977 6.1594 10.7497 4.66514 11.6429 3.30599C13.1832 0.962106 15.9517 0.299619 18.3591 1.72593C19.9209 2.65137 21.015 4.00237 21.8469 5.58043C22.9806 7.73101 23.5207 10.0311 23.5021 12.6257Z" fill="#332C22"/>
            <path d="M40.3133 8.33957C40.3158 11.2708 39.7747 13.7302 38.4414 15.9804C37.6959 17.2388 36.7425 18.3098 35.4241 18.9987C33.4972 20.0057 31.3757 19.6368 29.8629 18.062C28.6654 16.8155 28.0157 15.2981 27.6676 13.6375C27.0663 10.7666 27.3766 7.96218 28.3932 5.23445C28.8853 3.91427 29.6042 2.70612 30.6373 1.7315C31.5893 0.83343 32.674 0.129985 34.0256 0.0177295C35.7451 -0.125097 37.0951 0.603662 38.1745 1.89167C39.2869 3.21928 39.8425 4.79368 40.1183 6.47421C40.2371 7.19881 40.2729 7.93704 40.3133 8.33957Z" fill="#332C22"/>
            <path d="M0 22.4697C0.0237918 21.1605 0.273644 19.9298 1.05202 18.8621C2.069 17.4666 3.49287 16.9519 5.17513 17.0573C6.87729 17.1639 8.32628 17.8992 9.62721 18.9365C11.9445 20.7842 13.477 23.1431 14.0867 26.0618C14.3566 27.353 14.3767 28.6563 13.9249 29.914C13.1484 32.0763 11.377 33.193 9.06822 33.0142C7.63185 32.903 6.36756 32.3287 5.2075 31.5111C2.70693 29.7484 1.09699 27.3525 0.281794 24.4238C0.106771 23.7951 0.0897841 23.1222 0 22.4697Z" fill="#332C22"/>
            <path d="M52.6112 18.386C52.2237 22.4521 50.5695 25.5953 47.3615 27.8592C46.4705 28.4879 45.4686 28.8518 44.3742 28.9628C42.5237 29.1504 40.841 28.1086 40.1453 26.3259C39.5338 24.7587 39.5694 23.155 39.9541 21.5594C40.6942 18.488 42.3452 16.007 44.9397 14.1882C46.0881 13.3831 47.3912 13.0544 48.7923 13.1713C50.4212 13.3072 51.7982 14.5293 52.2742 16.3265C52.4667 17.0532 52.5216 17.8159 52.6112 18.386Z" fill="#332C22"/>
            <path d="M128.88 31.8727H132.623L127.688 37.844L133.058 44.3279H129.203L124.112 38.0112V44.3279H120.714V31.8727H124.112V37.922L128.88 31.8727Z" fill="#332C22"/>
            <path d="M118.364 38.078C118.364 39.1178 118.222 40.0388 117.94 40.8409C117.665 41.643 117.261 42.3226 116.726 42.8796C116.199 43.4292 115.56 43.8451 114.81 44.1274C114.067 44.4096 113.228 44.5507 112.292 44.5507C111.416 44.5507 110.61 44.4096 109.874 44.1274C109.147 43.8451 108.512 43.4292 107.969 42.8796C107.435 42.3226 107.019 41.643 106.722 40.8409C106.432 40.0388 106.287 39.1178 106.287 38.078C106.287 36.6966 106.532 35.5268 107.022 34.5687C107.513 33.6106 108.211 32.8828 109.117 32.3852C110.023 31.8875 111.104 31.6387 112.359 31.6387C113.525 31.6387 114.557 31.8875 115.456 32.3852C116.362 32.8828 117.071 33.6106 117.584 34.5687C118.104 35.5268 118.364 36.6966 118.364 38.078ZM109.752 38.078C109.752 38.895 109.841 39.582 110.019 40.139C110.197 40.6961 110.476 41.1157 110.855 41.3979C111.234 41.6802 111.727 41.8213 112.336 41.8213C112.938 41.8213 113.425 41.6802 113.796 41.3979C114.175 41.1157 114.449 40.6961 114.62 40.139C114.799 39.582 114.888 38.895 114.888 38.078C114.888 37.2536 114.799 36.5703 114.62 36.0281C114.449 35.4785 114.175 35.0663 113.796 34.7915C113.417 34.5167 112.923 34.3793 112.314 34.3793C111.416 34.3793 110.762 34.6876 110.353 35.304C109.952 35.9204 109.752 36.8451 109.752 38.078Z" fill="#332C22"/>
            <path d="M103.936 31.8727V44.3279H100.527V34.4239H96.0151V44.3279H92.6172V31.8727H103.936Z" fill="#332C22"/>
            <path d="M84.3819 31.6164C86.053 31.6164 87.3342 31.9804 88.2254 32.7082C89.1167 33.4361 89.5623 34.5427 89.5623 36.0281V44.3279H87.1893L86.532 42.6345H86.4429C86.0864 43.0801 85.7225 43.4441 85.3511 43.7263C84.9798 44.0085 84.5527 44.2165 84.07 44.3502C83.5872 44.4839 83.0005 44.5507 82.3097 44.5507C81.5745 44.5507 80.9134 44.4096 80.3267 44.1274C79.7474 43.8451 79.2906 43.4144 78.9564 42.8351C78.6222 42.2483 78.4551 41.5056 78.4551 40.6069C78.4551 39.2849 78.9193 38.312 79.8477 37.6881C80.776 37.0568 82.1686 36.7077 84.0254 36.6409L86.1867 36.574V36.0281C86.1867 35.3745 86.0159 34.8955 85.6742 34.591C85.3326 34.2865 84.8572 34.1342 84.2482 34.1342C83.6466 34.1342 83.0562 34.2196 82.4768 34.3905C81.8975 34.5613 81.3182 34.7767 80.7389 35.0366L79.6137 32.7416C80.2747 32.3926 81.0137 32.1178 81.8307 31.9172C82.6551 31.7167 83.5055 31.6164 84.3819 31.6164ZM86.1867 38.5571L84.8721 38.6016C83.7729 38.6313 83.0079 38.8281 82.5771 39.1921C82.1538 39.556 81.9421 40.035 81.9421 40.6292C81.9421 41.1491 82.0943 41.5205 82.3989 41.7433C82.7034 41.9587 83.1007 42.0663 83.5909 42.0663C84.3188 42.0663 84.9315 41.851 85.4291 41.4202C85.9342 40.9894 86.1867 40.3767 86.1867 39.582V38.5571Z" fill="#332C22"/>
            <path d="M75.8932 44.328H72.4507V30.9146H68.4624C68.3732 31.6128 68.2767 32.3741 68.1727 33.1985C68.0687 34.0229 67.961 34.8547 67.8496 35.694C67.7382 36.5332 67.6194 37.3316 67.4931 38.0892C67.3743 38.8468 67.2555 39.5115 67.1366 40.0834C66.9435 41.034 66.6799 41.8436 66.3457 42.512C66.0189 43.173 65.5695 43.6781 64.9976 44.0272C64.4332 44.3762 63.6942 44.5508 62.7806 44.5508C62.4761 44.5508 62.1828 44.5285 61.9005 44.4839C61.6257 44.4394 61.3695 44.3799 61.1318 44.3057V41.476C61.3249 41.5428 61.518 41.5985 61.7111 41.6431C61.9043 41.6802 62.1159 41.6988 62.3462 41.6988C62.6432 41.6988 62.8883 41.6022 63.0814 41.4091C63.282 41.2086 63.4602 40.8706 63.6162 40.3953C63.7722 39.9126 63.9281 39.2478 64.0841 38.4011C64.1509 38.0298 64.2401 37.5062 64.3515 36.8303C64.4629 36.147 64.5891 35.3486 64.7303 34.4351C64.8714 33.5141 65.0162 32.5115 65.1647 31.4271C65.3207 30.3428 65.4693 29.2138 65.6104 28.0404H75.8932V44.328Z" fill="#332C22"/>
            <path d="M152.421 10.757C154.092 10.757 155.373 11.1209 156.264 11.8488C157.156 12.5766 157.601 13.6833 157.601 15.1687V23.4684H155.228L154.571 21.7751H154.482C154.125 22.2207 153.762 22.5846 153.39 22.8669C153.019 23.1491 152.592 23.357 152.109 23.4907C151.626 23.6244 151.04 23.6913 150.349 23.6913C149.614 23.6913 148.953 23.5501 148.366 23.2679C147.786 22.9857 147.33 22.5549 146.995 21.9756C146.661 21.3889 146.494 20.6462 146.494 19.7475C146.494 18.4255 146.958 17.4525 147.887 16.8286C148.815 16.1973 150.208 15.8483 152.064 15.7814L154.226 15.7146V15.1687C154.226 14.5151 154.055 14.036 153.713 13.7315C153.372 13.427 152.896 13.2748 152.287 13.2748C151.686 13.2748 151.095 13.3602 150.516 13.531C149.937 13.7018 149.357 13.9172 148.778 14.1772L147.653 11.8822C148.314 11.5331 149.053 11.2583 149.87 11.0578C150.694 10.8573 151.545 10.757 152.421 10.757ZM154.226 17.6976L152.911 17.7422C151.812 17.7719 151.047 17.9687 150.616 18.3326C150.193 18.6965 149.981 19.1756 149.981 19.7698C149.981 20.2897 150.133 20.661 150.438 20.8838C150.742 21.0992 151.14 21.2069 151.63 21.2069C152.358 21.2069 152.971 20.9915 153.468 20.5607C153.973 20.13 154.226 19.5172 154.226 18.7225V17.6976Z" fill="#332C22"/>
            <path d="M141.814 11.0132H145.557L140.621 16.9846L145.991 23.4684H142.137L137.045 17.1517V23.4684H133.647V11.0132H137.045V17.0626L141.814 11.0132Z" fill="#332C22"/>
            <path d="M122.397 11.0132V15.8037H127.143V11.0132H130.541V23.4684H127.143V18.3326H122.397V23.4684H118.999V11.0132H122.397Z" fill="#332C22"/>
            <path d="M106.297 11.0132V15.9374C106.297 16.1899 106.286 16.5093 106.264 16.8955C106.249 17.2742 106.227 17.6605 106.197 18.0541C106.167 18.4477 106.138 18.8005 106.108 19.1124C106.078 19.4244 106.056 19.6361 106.041 19.7475L111.79 11.0132H115.878V23.4684H112.592V18.4997C112.592 18.0912 112.607 17.6419 112.636 17.1517C112.666 16.6541 112.699 16.1862 112.737 15.748C112.774 15.3098 112.8 14.9793 112.814 14.7565L107.088 23.4684H103.011V11.0132H106.297Z" fill="#332C22"/>
            <path d="M101.14 13.5644H97.0627V23.4684H93.6648V13.5644H89.5762V11.0132H101.14V13.5644Z" fill="#332C22"/>
            <path d="M82.6016 10.757C84.2727 10.757 85.5539 11.1209 86.4451 11.8488C87.3364 12.5766 87.782 13.6833 87.782 15.1687V23.4684H85.4091L84.7518 21.7751H84.6626C84.3061 22.2207 83.9422 22.5846 83.5709 22.8669C83.1995 23.1491 82.7724 23.357 82.2897 23.4907C81.8069 23.6244 81.2202 23.6913 80.5295 23.6913C79.7942 23.6913 79.1332 23.5501 78.5464 23.2679C77.9671 22.9857 77.5104 22.5549 77.1761 21.9756C76.8419 21.3889 76.6748 20.6462 76.6748 19.7475C76.6748 18.4255 77.139 17.4525 78.0674 16.8286C78.9958 16.1973 80.3883 15.8483 82.2451 15.7814L84.4064 15.7146V15.1687C84.4064 14.5151 84.2356 14.036 83.8939 13.7315C83.5523 13.427 83.077 13.2748 82.4679 13.2748C81.8663 13.2748 81.2759 13.3602 80.6966 13.531C80.1173 13.7018 79.5379 13.9172 78.9586 14.1772L77.8334 11.8822C78.4944 11.5331 79.2334 11.2583 80.0504 11.0578C80.8748 10.8573 81.7252 10.757 82.6016 10.757ZM84.4064 17.6976L83.0918 17.7422C81.9926 17.7719 81.2276 17.9687 80.7968 18.3326C80.3735 18.6965 80.1618 19.1756 80.1618 19.7698C80.1618 20.2897 80.3141 20.661 80.6186 20.8838C80.9231 21.0992 81.3204 21.2069 81.8106 21.2069C82.5385 21.2069 83.1512 20.9915 83.6488 20.5607C84.1539 20.13 84.4064 19.5172 84.4064 18.7225V17.6976Z" fill="#332C22"/>
            <path d="M76.1732 23.4685H72.2294L68.4416 17.3077L64.6538 23.4685H60.9551L66.3583 15.0685L61.3004 7.18091H65.1105L68.6198 13.0409L72.0623 7.18091H75.7833L70.6697 15.2579L76.1732 23.4685Z" fill="#332C22"/>
        </symbol>
        <symbol id="icon-menu" viewBox="0 0 32 32">
            <path d="M4.936 24.295c-.321 0-.59-.11-.808-.329s-.327-.493-.327-.82c0-.322.109-.591.327-.807s.488-.323.808-.323h22.127c.321 0 .591.11.812.329s.331.49.331.812a1.121 1.121 0 0 1-1.143 1.137H4.936zm0-7.159c-.321 0-.59-.11-.808-.329s-.327-.49-.327-.812c0-.322.109-.591.327-.806s.488-.323.808-.323h22.127c.321 0 .591.11.812.329s.331.49.331.812c0 .322-.11.591-.331.806s-.492.323-.812.323H4.936zm0-7.152c-.321 0-.59-.11-.808-.329s-.327-.493-.327-.82c0-.322.109-.591.327-.806s.488-.323.808-.323h22.127c.321 0 .591.11.812.329s.331.49.331.812a1.117 1.117 0 0 1-1.143 1.138H4.936z"/>
        </symbol>
        <symbol id="icon-instagram" viewBox="0 0 32 32">
            <path d="M15.998 6.161c3.206 0 3.585.014 4.846.071 1.172.052 1.804.248 2.226.412.558.216.961.478 1.378.895.422.422.679.82.9 1.378.164.422.361 1.059.412 2.226.056 1.266.071 1.645.071 4.847s-.014 3.585-.071 4.847c-.052 1.172-.248 1.804-.412 2.227a3.702 3.702 0 0 1-.895 1.377c-.422.422-.82.679-1.378.9-.422.164-1.06.361-2.226.412-1.266.056-1.645.071-4.847.071s-3.585-.014-4.847-.071c-1.172-.052-1.804-.248-2.226-.412a3.714 3.714 0 0 1-1.378-.895 3.767 3.767 0 0 1-.9-1.378c-.164-.422-.361-1.06-.412-2.226-.056-1.266-.071-1.645-.071-4.847s.014-3.585.071-4.847c.052-1.172.248-1.804.412-2.226.216-.558.478-.961.895-1.378.422-.422.82-.679 1.378-.9.422-.164 1.059-.361 2.226-.412 1.261-.056 1.641-.071 4.847-.071h.001zm0-2.16c-3.258 0-3.665.014-4.945.071-1.275.056-2.151.262-2.91.558a5.847 5.847 0 0 0-2.127 1.387A5.883 5.883 0 0 0 4.629 8.14c-.295.764-.502 1.636-.558 2.91C4.015 12.335 4 12.742 4 15.999s.014 3.665.071 4.945c.056 1.275.262 2.151.558 2.91a5.86 5.86 0 0 0 1.387 2.127 5.876 5.876 0 0 0 2.123 1.383c.764.295 1.636.502 2.91.558 1.279.056 1.687.071 4.945.071s3.666-.014 4.945-.071c1.275-.056 2.151-.262 2.91-.558.787-.305 1.458-.717 2.123-1.383s1.078-1.336 1.383-2.123c.295-.764.502-1.635.558-2.91.056-1.279.071-1.687.071-4.945s-.014-3.665-.071-4.945c-.056-1.275-.262-2.151-.558-2.91a5.622 5.622 0 0 0-1.373-2.133 5.876 5.876 0 0 0-2.123-1.383c-.764-.295-1.635-.502-2.91-.558-1.284-.061-1.692-.075-4.949-.075L15.999 4z"/>
            <path d="M15.997 9.836a6.164 6.164 0 1 0 6.163 6.163 6.164 6.164 0 0 0-6.163-6.163zm0 10.161a3.998 3.998 0 1 1 0-7.996 3.998 3.998 0 0 1 0 7.996zM23.842 9.592a1.439 1.439 0 1 1-2.877 0 1.439 1.439 0 0 1 2.877 0z"/>
        </symbol>
        <symbol id="icon-facebook" viewBox="0 0 32 32">
            <path d="M29.333 16.405C29.333 8.996 23.364 2.99 16 2.99S2.667 8.996 2.667 16.405c0 6.696 4.876 12.245 11.25 13.252v-9.374h-3.385v-3.878h3.385V13.45c0-3.362 1.991-5.219 5.036-5.219 1.459 0 2.985.262 2.985.262v3.301h-1.681c-1.656 0-2.173 1.034-2.173 2.095v2.516h3.698l-.591 3.878h-3.107v9.374c6.374-1.006 11.25-6.556 11.25-13.252z"/>
        </symbol>
        <symbol id="icon-close" viewBox="0 0 32 32">
            <path stroke-width="2.667" d="M16 17.867 9.467 24.4c-.244.244-.556.367-.933.367s-.689-.122-.933-.367c-.244-.244-.367-.556-.367-.933s.122-.689.367-.933l6.533-6.533-6.533-6.533c-.244-.244-.367-.556-.367-.933s.122-.689.367-.933c.244-.244.556-.367.933-.367s.689.122.933.367L16 14.135l6.533-6.533c.244-.244.556-.367.933-.367s.689.122.933.367c.244.244.367.556.367.933s-.122.689-.367.933l-6.533 6.533 6.533 6.533c.244.244.367.556.367.933s-.122.689-.367.933c-.244.244-.556.367-.933.367s-.689-.122-.933-.367L16 17.867z"/>
        </symbol>
        <symbol id="icon-arrow_forward" viewBox="0 0 32 32">
            <path stroke-width="2.667" d="M22.54 17.136H6.27a1.102 1.102 0 0 1-1.135-1.135 1.102 1.102 0 0 1 1.135-1.135h16.27l-7.336-7.335c-.227-.227-.341-.494-.344-.801s.109-.575.336-.803c.227-.229.495-.342.803-.339s.577.117.805.344l9.267 9.267a1.091 1.091 0 0 1 .348.805 1.083 1.083 0 0 1-.348.803l-9.275 9.267c-.234.232-.503.348-.806.348s-.567-.117-.794-.35c-.226-.227-.34-.492-.34-.795s.113-.568.34-.794l7.344-7.343z"/>
        </symbol>
        <symbol id="icon-arrow_back" viewBox="0 0 32 32">
            <path stroke-width="2.667" d="m9.46 17.136 7.336 7.335c.227.227.341.494.344.8s-.109.574-.336.803c-.227.229-.494.343-.802.34s-.577-.117-.805-.344L5.93 16.803a1.091 1.091 0 0 1-.348-.805 1.083 1.083 0 0 1 .348-.803l9.275-9.275c.234-.226.503-.34.806-.34s.567.113.794.34c.226.232.34.5.34.803s-.113.569-.34.796l-7.344 7.343h16.27c.325 0 .597.108.816.323s.328.486.328.812-.109.597-.328.812a1.12 1.12 0 0 1-.816.323H9.461z"/>
        </symbol>
        <symbol id="icon-add" viewBox="0 0 32 32">
            <path d="M14.864 17.136H7.603c-.321 0-.59-.11-.808-.329s-.327-.49-.327-.812c0-.322.109-.591.327-.806s.488-.323.808-.323h7.261V7.605c0-.32.11-.591.329-.812s.49-.332.812-.332c.322 0 .591.111.806.332s.323.492.323.812v7.261h7.261c.32 0 .591.11.812.329s.332.49.332.812c0 .322-.111.591-.332.806s-.492.323-.812.323h-7.261v7.261c0 .321-.11.59-.329.808s-.49.327-.812.327c-.322 0-.591-.109-.806-.327s-.323-.488-.323-.808v-7.261z"/>
        </symbol>
    </defs>
  <defs>
    <symbol id="logo-text" viewBox="0 0 82 32">
      <path d="M57.965 21.071h3.195l-4.212 5.096 4.582 5.533h-3.289l-4.345-5.39v5.39h-2.9v-10.629h2.9v5.162l4.069-5.162z"></path>
      <path d="M48.991 26.367c0 0.887-0.12 1.673-0.361 2.358-0.234 0.685-0.58 1.264-1.036 1.74-0.45 0.469-0.995 0.824-1.635 1.065-0.634 0.241-1.35 0.361-2.149 0.361-0.748 0-1.436-0.12-2.063-0.361-0.621-0.241-1.163-0.596-1.626-1.065-0.456-0.475-0.811-1.055-1.065-1.74-0.247-0.685-0.371-1.47-0.371-2.358 0-1.179 0.209-2.177 0.627-2.995s1.014-1.439 1.787-1.863c0.773-0.425 1.695-0.637 2.767-0.637 0.995 0 1.876 0.212 2.643 0.637 0.773 0.425 1.379 1.046 1.816 1.863 0.444 0.818 0.666 1.816 0.666 2.995zM41.642 26.367c0 0.697 0.076 1.283 0.228 1.759s0.39 0.833 0.713 1.074c0.323 0.241 0.745 0.361 1.264 0.361 0.513 0 0.929-0.12 1.245-0.361 0.323-0.241 0.558-0.599 0.704-1.074 0.152-0.475 0.228-1.062 0.228-1.759 0-0.704-0.076-1.287-0.228-1.749-0.146-0.469-0.38-0.821-0.704-1.055s-0.745-0.352-1.264-0.352c-0.767 0-1.325 0.263-1.673 0.789-0.342 0.526-0.513 1.315-0.513 2.367z"></path>
      <path d="M36.679 21.071v10.629h-2.909v-8.452h-3.85v8.452h-2.9v-10.629h9.659z"></path>
      <path d="M19.992 20.853c1.426 0 2.519 0.311 3.28 0.932s1.141 1.566 1.141 2.833v7.083h-2.025l-0.561-1.445h-0.076c-0.304 0.38-0.615 0.691-0.932 0.932s-0.681 0.418-1.093 0.532c-0.412 0.114-0.913 0.171-1.502 0.171-0.627 0-1.192-0.12-1.692-0.361-0.494-0.241-0.884-0.608-1.169-1.103-0.285-0.501-0.428-1.134-0.428-1.901 0-1.128 0.396-1.958 1.188-2.491 0.792-0.539 1.981-0.837 3.565-0.894l1.844-0.057v-0.466c0-0.558-0.146-0.967-0.437-1.226s-0.697-0.39-1.217-0.39c-0.513 0-1.017 0.073-1.512 0.219s-0.989 0.33-1.483 0.551l-0.96-1.958c0.564-0.298 1.195-0.532 1.892-0.704 0.703-0.171 1.429-0.257 2.177-0.257zM21.532 26.775l-1.122 0.038c-0.938 0.025-1.591 0.193-1.958 0.504-0.361 0.311-0.542 0.719-0.542 1.226 0 0.444 0.13 0.761 0.39 0.951 0.26 0.184 0.599 0.276 1.017 0.276 0.621 0 1.144-0.184 1.569-0.551 0.431-0.368 0.646-0.89 0.646-1.569v-0.875z"></path>
      <path d="M12.747 31.7h-2.938v-11.447h-3.404c-0.076 0.596-0.158 1.245-0.247 1.949s-0.181 1.413-0.276 2.13c-0.095 0.716-0.197 1.398-0.304 2.044-0.101 0.646-0.203 1.214-0.304 1.702-0.165 0.811-0.39 1.502-0.675 2.073-0.279 0.564-0.662 0.995-1.15 1.293-0.482 0.298-1.112 0.447-1.892 0.447-0.26 0-0.51-0.019-0.751-0.057-0.234-0.038-0.453-0.089-0.656-0.152v-2.415c0.165 0.057 0.33 0.105 0.494 0.143 0.165 0.032 0.345 0.048 0.542 0.048 0.254 0 0.463-0.082 0.627-0.247 0.171-0.171 0.323-0.459 0.456-0.865 0.133-0.412 0.266-0.979 0.399-1.702 0.057-0.317 0.133-0.764 0.228-1.34 0.095-0.583 0.203-1.264 0.323-2.044 0.12-0.786 0.244-1.642 0.371-2.567 0.133-0.925 0.26-1.889 0.38-2.89h8.775v13.899z"></path>
      <path d="M78.054 3.052c1.426 0 2.519 0.311 3.28 0.932s1.141 1.565 1.141 2.833v7.083h-2.025l-0.561-1.445h-0.076c-0.304 0.38-0.615 0.691-0.932 0.932s-0.681 0.418-1.093 0.532c-0.412 0.114-0.913 0.171-1.502 0.171-0.627 0-1.191-0.12-1.692-0.361-0.494-0.241-0.884-0.608-1.17-1.103-0.285-0.501-0.428-1.135-0.428-1.901 0-1.128 0.396-1.958 1.189-2.491 0.792-0.539 1.98-0.837 3.565-0.894l1.844-0.057v-0.466c0-0.558-0.146-0.967-0.437-1.226s-0.697-0.39-1.217-0.39c-0.513 0-1.017 0.073-1.512 0.219s-0.989 0.33-1.483 0.551l-0.96-1.958c0.564-0.298 1.194-0.532 1.892-0.704 0.704-0.171 1.429-0.257 2.177-0.257zM79.594 8.975l-1.122 0.038c-0.938 0.025-1.591 0.193-1.958 0.504-0.361 0.311-0.542 0.719-0.542 1.226 0 0.444 0.13 0.761 0.39 0.951 0.26 0.184 0.599 0.276 1.017 0.276 0.621 0 1.144-0.184 1.569-0.551 0.431-0.368 0.646-0.89 0.646-1.569v-0.875z"></path>
      <path d="M69.003 3.27h3.195l-4.212 5.096 4.583 5.533h-3.29l-4.345-5.391v5.39h-2.899v-10.629h2.899v5.162l4.069-5.162z"></path>
      <path d="M52.432 3.27v4.088h4.050v-4.088h2.9v10.629h-2.9v-4.383h-4.050v4.383h-2.9v-10.629h2.9z"></path>
      <path d="M38.694 3.27v4.202c0 0.216-0.010 0.488-0.029 0.818-0.013 0.323-0.032 0.653-0.057 0.989s-0.051 0.637-0.076 0.903c-0.025 0.266-0.044 0.447-0.057 0.542l4.906-7.454h3.489v10.629h-2.804v-4.24c0-0.349 0.013-0.732 0.038-1.15 0.025-0.425 0.054-0.824 0.086-1.198s0.054-0.656 0.067-0.846l-4.887 7.435h-3.48v-10.629h2.805z"></path>
      <path d="M34.293 5.448h-3.48v8.452h-2.9v-8.452h-3.489v-2.177h9.868v2.177z"></path>
      <path d="M18.472 3.052c1.426 0 2.519 0.311 3.28 0.932s1.141 1.565 1.141 2.833v7.083h-2.025l-0.561-1.445h-0.076c-0.304 0.38-0.615 0.691-0.932 0.932s-0.681 0.418-1.093 0.532c-0.412 0.114-0.913 0.171-1.502 0.171-0.627 0-1.192-0.12-1.692-0.361-0.494-0.241-0.884-0.608-1.169-1.103-0.285-0.501-0.428-1.135-0.428-1.901 0-1.128 0.396-1.958 1.188-2.491 0.792-0.539 1.981-0.837 3.565-0.894l1.844-0.057v-0.466c0-0.558-0.146-0.967-0.437-1.226s-0.697-0.39-1.217-0.39c-0.513 0-1.017 0.073-1.512 0.219s-0.989 0.33-1.483 0.551l-0.96-1.958c0.564-0.298 1.195-0.532 1.892-0.704 0.704-0.171 1.429-0.257 2.177-0.257zM20.013 8.975l-1.122 0.038c-0.938 0.025-1.591 0.193-1.958 0.504-0.361 0.311-0.542 0.719-0.542 1.226 0 0.444 0.13 0.761 0.39 0.951 0.26 0.184 0.599 0.276 1.017 0.276 0.621 0 1.144-0.184 1.569-0.551 0.431-0.368 0.646-0.89 0.646-1.569v-0.875z"></path>
      <path d="M12.987 13.899h-3.365l-3.232-5.257-3.232 5.257h-3.156l4.611-7.168-4.316-6.731h3.251l2.995 5.001 2.938-5.001h3.175l-4.364 6.893 4.697 7.007z"></path>
    </symbol>
    <symbol id="icon-logo" viewBox="0 0 32 32">
      <path d="m16.468 20.13-.098-.192c-.372-.715-1.27-1.179-2.066-1.069-.684.094-1.254.663-1.455 1.466-.216.866-.06 1.701.252 2.513.508 1.324 1.313 2.456 2.304 3.458.686.693 1.232.681 1.907-.024.937-.979 1.697-2.078 2.224-3.33.311-.738.54-1.498.574-2.305.025-.583-.05-1.144-.382-1.644-.421-.635-1.114-.822-1.796-.487-.424.208-.759.52-1.023.906-.152.221-.284.456-.44.709zm13.191 3.721a6.853 6.853 0 0 1-.764 3.097c-.853 1.639-2.087 2.91-3.738 3.761-1.628.84-3.297.936-5.002.267a38.172 38.172 0 0 1-2.057-.863c-1.226-.565-2.447-.56-3.701-.09-.881.33-1.774.631-2.677.892a7.297 7.297 0 0 1-2.874.258c-.844-.096-1.556-.47-2.174-1.035-.787-.721-1.418-1.563-1.815-2.556-.51-1.272-.387-2.5.355-3.66.581-.908 1.365-1.632 2.125-2.381a30.77 30.77 0 0 0 1.602-1.689c.587-.675.937-1.49 1.228-2.327.27-.777.515-1.562.781-2.34.192-.562.545-1.03.894-1.503.839-1.141 2.037-1.64 3.359-1.934 1.567-.348 2.933.101 4.098 1.132.717.634 1.338 1.377 2.005 2.068 1.137 1.176 2.343 2.275 3.694 3.203.673.462 1.378.876 2.045 1.345.954.672 1.759 1.487 2.251 2.569.257.567.359 1.167.368 1.786zM14.273 7.668c.003.874-.152 1.817-.566 2.703-.443.948-1.084 1.698-2.138 1.99-.867.24-1.668.047-2.415-.42-.982-.613-1.646-1.503-2.14-2.527a8.833 8.833 0 0 1-.847-4.703c.087-.971.361-1.878.904-2.704.935-1.423 2.617-1.826 4.079-.96.948.562 1.613 1.382 2.118 2.341.689 1.306 1.016 2.703 1.005 4.279zM24.483 5.065c.001 1.78-.327 3.274-1.137 4.64-.453.764-1.032 1.415-1.832 1.833-1.17.612-2.459.387-3.377-.569-.727-.757-1.122-1.678-1.333-2.687-.365-1.744-.177-3.447.441-5.103.299-.802.735-1.535 1.363-2.127.578-.545 1.237-.973 2.058-1.041 1.044-.087 1.864.356 2.52 1.138.676.806 1.013 1.762 1.18 2.783.072.44.094.888.119 1.133zM0 13.646c.014-.795.166-1.543.639-2.191.618-.847 1.482-1.16 2.504-1.096 1.034.065 1.914.511 2.704 1.141 1.407 1.122 2.338 2.555 2.708 4.327.164.784.176 1.576-.098 2.339-.472 1.313-1.547 1.991-2.95 1.883-.872-.068-1.64-.416-2.345-.913C1.643 18.066.666 16.61.171 14.832c-.106-.382-.117-.79-.171-1.187zM31.951 11.166c-.235 2.469-1.24 4.378-3.188 5.753a3.75 3.75 0 0 1-1.814.67c-1.124.114-2.146-.519-2.568-1.601-.371-.952-.35-1.926-.116-2.895.45-1.865 1.452-3.372 3.028-4.477.697-.489 1.489-.689 2.34-.618.989.083 1.825.825 2.115 1.916.117.441.15.904.205 1.251z"/>
    </symbol>
    <symbol id="icon-menu" viewBox="0 0 32 32">
      <path d="M4.936 24.295c-.321 0-.59-.11-.808-.329s-.327-.493-.327-.82c0-.322.109-.591.327-.807s.488-.323.808-.323h22.127c.321 0 .591.11.812.329s.331.49.331.812a1.121 1.121 0 0 1-1.143 1.137H4.936zm0-7.159c-.321 0-.59-.11-.808-.329s-.327-.49-.327-.812c0-.322.109-.591.327-.806s.488-.323.808-.323h22.127c.321 0 .591.11.812.329s.331.49.331.812c0 .322-.11.591-.331.806s-.492.323-.812.323H4.936zm0-7.152c-.321 0-.59-.11-.808-.329s-.327-.493-.327-.82c0-.322.109-.591.327-.806s.488-.323.808-.323h22.127c.321 0 .591.11.812.329s.331.49.331.812a1.117 1.117 0 0 1-1.143 1.138H4.936z"/>
    </symbol>
    <symbol id="icon-instagram" viewBox="0 0 32 32">
      <path d="M15.998 6.161c3.206 0 3.585.014 4.846.071 1.172.052 1.804.248 2.226.412.558.216.961.478 1.378.895.422.422.679.82.9 1.378.164.422.361 1.059.412 2.226.056 1.266.071 1.645.071 4.847s-.014 3.585-.071 4.847c-.052 1.172-.248 1.804-.412 2.227a3.702 3.702 0 0 1-.895 1.377c-.422.422-.82.679-1.378.9-.422.164-1.06.361-2.226.412-1.266.056-1.645.071-4.847.071s-3.585-.014-4.847-.071c-1.172-.052-1.804-.248-2.226-.412a3.714 3.714 0 0 1-1.378-.895 3.767 3.767 0 0 1-.9-1.378c-.164-.422-.361-1.06-.412-2.226-.056-1.266-.071-1.645-.071-4.847s.014-3.585.071-4.847c.052-1.172.248-1.804.412-2.226.216-.558.478-.961.895-1.378.422-.422.82-.679 1.378-.9.422-.164 1.059-.361 2.226-.412 1.261-.056 1.641-.071 4.847-.071h.001zm0-2.16c-3.258 0-3.665.014-4.945.071-1.275.056-2.151.262-2.91.558a5.847 5.847 0 0 0-2.127 1.387A5.883 5.883 0 0 0 4.629 8.14c-.295.764-.502 1.636-.558 2.91C4.015 12.335 4 12.742 4 15.999s.014 3.665.071 4.945c.056 1.275.262 2.151.558 2.91a5.86 5.86 0 0 0 1.387 2.127 5.876 5.876 0 0 0 2.123 1.383c.764.295 1.636.502 2.91.558 1.279.056 1.687.071 4.945.071s3.666-.014 4.945-.071c1.275-.056 2.151-.262 2.91-.558.787-.305 1.458-.717 2.123-1.383s1.078-1.336 1.383-2.123c.295-.764.502-1.635.558-2.91.056-1.279.071-1.687.071-4.945s-.014-3.665-.071-4.945c-.056-1.275-.262-2.151-.558-2.91a5.622 5.622 0 0 0-1.373-2.133 5.876 5.876 0 0 0-2.123-1.383c-.764-.295-1.635-.502-2.91-.558-1.284-.061-1.692-.075-4.949-.075L15.999 4z"/>
      <path d="M15.997 9.836a6.164 6.164 0 1 0 6.163 6.163 6.164 6.164 0 0 0-6.163-6.163zm0 10.161a3.998 3.998 0 1 1 0-7.996 3.998 3.998 0 0 1 0 7.996zM23.842 9.592a1.439 1.439 0 1 1-2.877 0 1.439 1.439 0 0 1 2.877 0z"/>
    </symbol>
    <symbol id="icon-facebook" viewBox="0 0 32 32">
      <path d="M29.333 16.405C29.333 8.996 23.364 2.99 16 2.99S2.667 8.996 2.667 16.405c0 6.696 4.876 12.245 11.25 13.252v-9.374h-3.385v-3.878h3.385V13.45c0-3.362 1.991-5.219 5.036-5.219 1.459 0 2.985.262 2.985.262v3.301h-1.681c-1.656 0-2.173 1.034-2.173 2.095v2.516h3.698l-.591 3.878h-3.107v9.374c6.374-1.006 11.25-6.556 11.25-13.252z"/>
    </symbol>
    <symbol id="icon-close" viewBox="0 0 32 32">
      <path stroke-width="2.667" d="M16 17.867 9.467 24.4c-.244.244-.556.367-.933.367s-.689-.122-.933-.367c-.244-.244-.367-.556-.367-.933s.122-.689.367-.933l6.533-6.533-6.533-6.533c-.244-.244-.367-.556-.367-.933s.122-.689.367-.933c.244-.244.556-.367.933-.367s.689.122.933.367L16 14.135l6.533-6.533c.244-.244.556-.367.933-.367s.689.122.933.367c.244.244.367.556.367.933s-.122.689-.367.933l-6.533 6.533 6.533 6.533c.244.244.367.556.367.933s-.122.689-.367.933c-.244.244-.556.367-.933.367s-.689-.122-.933-.367L16 17.867z"/>
    </symbol>
    <symbol id="icon-arrow_forward" viewBox="0 0 32 32">
      <path stroke-width="2.667" d="M22.54 17.136H6.27a1.102 1.102 0 0 1-1.135-1.135 1.102 1.102 0 0 1 1.135-1.135h16.27l-7.336-7.335c-.227-.227-.341-.494-.344-.801s.109-.575.336-.803c.227-.229.495-.342.803-.339s.577.117.805.344l9.267 9.267a1.091 1.091 0 0 1 .348.805 1.083 1.083 0 0 1-.348.803l-9.275 9.267c-.234.232-.503.348-.806.348s-.567-.117-.794-.35c-.226-.227-.34-.492-.34-.795s.113-.568.34-.794l7.344-7.343z"/>
    </symbol>
    <symbol id="icon-arrow_back" viewBox="0 0 32 32">
      <path stroke-width="2.667" d="m9.46 17.136 7.336 7.335c.227.227.341.494.344.8s-.109.574-.336.803c-.227.229-.494.343-.802.34s-.577-.117-.805-.344L5.93 16.803a1.091 1.091 0 0 1-.348-.805 1.083 1.083 0 0 1 .348-.803l9.275-9.275c.234-.226.503-.34.806-.34s.567.113.794.34c.226.232.34.5.34.803s-.113.569-.34.796l-7.344 7.343h16.27c.325 0 .597.108.816.323s.328.486.328.812-.109.597-.328.812a1.12 1.12 0 0 1-.816.323H9.461z"/>
    </symbol>
    <symbol id="icon-add" viewBox="0 0 32 32">
      <path d="M14.864 17.136H7.603c-.321 0-.59-.11-.808-.329s-.327-.49-.327-.812c0-.322.109-.591.327-.806s.488-.323.808-.323h7.261V7.605c0-.32.11-.591.329-.812s.49-.332.812-.332c.322 0 .591.111.806.332s.323.492.323.812v7.261h7.261c.32 0 .591.11.812.329s.332.49.332.812c0 .322-.111.591-.332.806s-.492.323-.812.323h-7.261v7.261c0 .321-.11.59-.329.808s-.49.327-.812.327c-.322 0-.591-.109-.806-.327s-.323-.488-.323-.808v-7.261z"/>
    </symbol>
    <symbol id="icon-star-empty" viewBox="0 0 32 32">
      <path d="M16.005 1.6c.45 0 .865.255 1.07.655l3.675 7.21 7.995 1.27a1.202 1.202 0 0 1 .665 2.035l-5.725 5.725 1.265 7.995a1.2 1.2 0 0 1-1.73 1.26l-7.215-3.67-7.215 3.67a1.2 1.2 0 0 1-1.73-1.26l1.26-7.995L2.6 12.77c-.32-.32-.43-.79-.29-1.22s.505-.745.955-.815l7.995-1.27 3.68-7.21c.205-.4.62-.655 1.07-.655zm0 3.84-2.89 5.66c-.175.34-.5.58-.88.64l-6.275 1 4.49 4.495c.27.27.395.655.335 1.035l-.99 6.275 5.665-2.88c.34-.175.745-.175 1.09 0l5.665 2.88-.99-6.275a1.2 1.2 0 0 1 .335-1.035l4.49-4.495-6.275-1c-.38-.06-.705-.3-.88-.64l-2.89-5.66z"/>
    </symbol>
    <symbol id="icon-star-full" viewBox="0 0 32 32">
      <path d="M17.075 2.255c-.205-.4-.62-.655-1.07-.655s-.865.255-1.07.655l-3.68 7.21-7.995 1.27a1.202 1.202 0 0 0-.665 2.035l5.72 5.725-1.26 7.995a1.2 1.2 0 0 0 1.73 1.26l7.22-3.67 7.215 3.67a1.2 1.2 0 0 0 1.73-1.26l-1.265-7.995 5.72-5.725c.32-.32.43-.79.29-1.22s-.505-.745-.955-.815l-7.99-1.27-3.675-7.21z"/>
    </symbol>
    <symbol id="icon-star-half" viewBox="0 0 32 32">
      <path d="M16.005 20.88c.5 0 .995.115 1.45.35l3.72 1.895-.65-4.125a3.207 3.207 0 0 1 .895-2.76l2.95-2.955-4.125-.655a3.205 3.205 0 0 1-2.35-1.705l-1.9-3.72v13.68zm8.465 6.77a1.2 1.2 0 0 1-1.25.1l-7.215-3.67-7.215 3.67a1.2 1.2 0 0 1-1.73-1.26l1.26-7.995L2.6 12.77c-.32-.32-.43-.79-.29-1.22s.505-.745.955-.815l7.995-1.27 3.68-7.21c.205-.4.62-.655 1.07-.655s.865.255 1.07.655l3.67 7.21 7.995 1.27a1.202 1.202 0 0 1 .665 2.035l-5.725 5.725 1.265 7.995c.07.445-.115.895-.48 1.16z"/>
    </symbol>
  </defs>
</svg>